<svg xmlns="http://www.w3.org/2000/svg" width="244" height="78" fill="none">
  <defs/>
  <path fill="#667EEA" d="M31.179 60.211V78l31.173-18.02V42.195L31.179 60.21z"/>
  <path fill="#4C51BF" d="M45.133 25.855l15.381-8.895L31.18 0v17.788l13.954 8.067z"/>
  <path fill="#A3BFFA" d="M19.063 31.166V48.96l12.115 7.002V38.176l-12.115-7.01z"/>
  <path fill="#667EEA" d="M62.352 20.149L31.179 38.176v17.786l31.173-18.02V20.15zM1.856 16.95l15.29 8.946 14.032-8.108V0L1.856 16.95z"/>
  <path fill="#A3BFFA" d="M15.386 51.086V29.032L0 20.141v39.84l31.178 18.018V60.212l-15.792-9.125z"/>
  <path fill="#4C51BF" d="M83.93 28.684c2.123 0 3.978.43 5.565 1.291 1.606.842 2.84 2.029 3.7 3.56.86 1.53 1.29 3.282 1.29 5.253 0 1.951-.44 3.693-1.319 5.224-.86 1.53-2.094 2.736-3.7 3.616-1.587.861-3.432 1.292-5.535 1.292h-8.003V28.684h8.003zm-.43 15.27c1.645 0 2.936-.45 3.873-1.349.936-.9 1.405-2.172 1.405-3.817 0-1.665-.469-2.947-1.406-3.847-.936-.918-2.227-1.378-3.872-1.378h-1.95v10.391h1.95zM102.641 28.684V48.92H97.02V28.684h5.621zM111.981 44.356h8.403v4.564h-14.713v-4.277l8.317-11.424h-8.317v-4.535h14.713v4.277l-8.403 11.395zM129.571 44.356h8.403v4.564h-14.713v-4.277l8.317-11.424h-8.317v-4.535h14.713v4.277l-8.403 11.395zM159.408 28.684l-7.113 13.806v6.43h-5.651v-6.43l-7.113-13.806h6.425l3.557 7.807 3.556-7.807h6.339z"/>
  <path fill="#2D3748" d="M175.323 38.53c1.186.267 2.123.86 2.811 1.779.708.9 1.061 1.933 1.061 3.1 0 1.722-.592 3.071-1.778 4.047-1.185.976-2.849 1.464-4.991 1.464h-10.01V28.684h9.695c2.065 0 3.681.459 4.847 1.377 1.186.919 1.778 2.21 1.778 3.876 0 1.186-.315 2.181-.946 2.985-.612.784-1.434 1.32-2.467 1.607zm-7.285-1.81h2.84c1.415 0 2.122-.583 2.122-1.75 0-1.206-.707-1.809-2.122-1.809h-2.84v3.56zm3.27 7.665c1.415 0 2.122-.593 2.122-1.78 0-.612-.191-1.081-.573-1.406-.364-.326-.89-.488-1.578-.488h-3.241v3.674h3.27zM194.451 45.619h-7.17l-1.09 3.3h-5.909l7.372-20.235h6.482l7.342 20.236h-5.937l-1.09-3.301zm-1.405-4.306l-2.18-6.544-2.151 6.544h4.331zM222.04 48.92h-5.622l-7.486-11.31v11.31h-5.621V28.684h5.621l7.486 11.452V28.684h5.622V48.92zM237.202 48.92l-6.338-8.87v8.87h-5.622V28.684h5.622v8.726l6.281-8.726h6.482l-7.428 9.816L244 48.92h-6.798z"/>
</svg>
